<svg xmlns="http://www.w3.org/2000/svg" viewBox="0 0 128 128">
  <defs>
    <linearGradient id="dsGradient" x1="0%" y1="0%" x2="100%" y2="0%">
      <stop offset="0%" stop-color="#7c3aed"/>
      <stop offset="100%" stop-color="#22d3ee"/>
    </linearGradient>
    <radialGradient id="dsGlow" cx="50%" cy="50%" r="60%">
      <stop offset="0%" stop-color="rgba(124,58,237,0.45)"/>
      <stop offset="100%" stop-color="rgba(34,211,238,0)"/>
    </radialGradient>
  </defs>
  <rect x="0" y="0" width="128" height="128" rx="24" fill="#0b1220"/>
  <circle cx="64" cy="64" r="52" fill="url(#dsGlow)"/>
  <g transform="translate(0,0)">
    <path d="M64 18 L74 44 L99 47 L79 64 L86 92 L64 76 L42 92 L49 64 L29 47 L54 44 Z" fill="url(#dsGradient)"/>
    <path d="M64 18 L74 44 L99 47 L79 64 L86 92 L64 76 L42 92 L49 64 L29 47 L54 44 Z" fill="none" stroke="#1f2a44" stroke-width="2"/>
  </g>
  <g fill="#0b1220" stroke="url(#dsGradient)" stroke-width="2">
    <circle cx="74" cy="44" r="4"/>
    <circle cx="54" cy="44" r="4"/>
    <circle cx="79" cy="64" r="4"/>
    <circle cx="49" cy="64" r="4"/>
    <circle cx="86" cy="92" r="4"/>
    <circle cx="42" cy="92" r="4"/>
  </g>
</svg>
